<?xml version="1.0" encoding="iso-8859-1"?>
<!-- Uploaded to: SVG Repo, www.svgrepo.com, Generator: SVG Repo Mixer Tools -->
<!DOCTYPE svg PUBLIC "-//W3C//DTD SVG 1.1//EN" "http://www.w3.org/Graphics/SVG/1.1/DTD/svg11.dtd">
<svg fill="#000000" version="1.1" id="Capa_1" xmlns="http://www.w3.org/2000/svg" xmlns:xlink="http://www.w3.org/1999/xlink" 
	 width="800px" height="800px" viewBox="0 0 28.621 28.621"
	 xml:space="preserve">
<g>
	<path d="M14.311,0c-6.904,0-12.5,5.596-12.5,12.5c0,4.723,2.618,8.828,6.48,10.955l-0.147,5.166l5.898-3.635
		C14.131,24.988,14.22,25,14.311,25c6.904,0,12.5-5.596,12.5-12.5C26.811,5.596,21.215,0,14.311,0z M13.75,20.018
		c-1.116,0-1.876-0.822-1.876-1.918c0-1.119,0.779-1.92,1.876-1.92c1.14,0,1.878,0.801,1.898,1.92
		C15.649,19.193,14.891,20.018,13.75,20.018z M16.301,12.173c-0.779,0.865-1.096,1.686-1.074,2.638v0.377h-2.805L12.4,14.641
		c-0.063-1.074,0.295-2.173,1.246-3.31c0.673-0.803,1.223-1.477,1.223-2.194c0-0.737-0.487-1.222-1.542-1.263
		c-0.693,0-1.539,0.251-2.084,0.632l-0.718-2.301c0.759-0.442,2.022-0.861,3.52-0.861c2.785,0,4.048,1.538,4.048,3.289
		C18.094,10.233,17.104,11.287,16.301,12.173z"/>
</g>
</svg>